<?xml version="1.0" encoding="utf-8"?>
<!DOCTYPE svg PUBLIC "-//W3C//DTD SVG 1.1//EN" "http://www.w3.org/Graphics/SVG/1.1/DTD/svg11.dtd">
<svg version="1.1" id="Layer_1" xmlns="http://www.w3.org/2000/svg" xmlns:xlink="http://www.w3.org/1999/xlink" x="0px" y="0px"
width="1276px" height="1276px" viewBox="0 0 1276 1276" enable-background="new 0 0 1276 1276" xml:space="preserve">
<rect x="0" y="0" width="1276" height="1276" fill="rgb(255,255,255)" /><g transform="translate(88,88)"><g transform="translate(352,0) scale(0.088,0.088)"><g transform="" style="fill: rgb(140, 29, 64);">
<path d="M500,250c0,58.266,0,250,0,250s-170.194,0-250-0.012c-62.324,0.012-250,0-250,0s0-174.241,0-249.994
	C0.006,111.931,111.929,0,249.994,0C388.064,0,500,111.93,500,250z"/>
</g></g><g transform="translate(528,0) scale(0.088,0.088)"><g transform="" style="fill: rgb(140, 29, 64);">
<path d="M250,0c58.27,0,250,0,250,0s0,170.182,0,250c0,62.305,0,250,0,250s-174.219,0-250,0
	C111.881,500,0,388.021,0,250C0,111.963,111.881,0,250,0z"/>
</g></g><g transform="translate(572,0) scale(0.088,0.088)"><g transform="" style="fill: rgb(140, 29, 64);">
<g>
	<path d="M0,0v500h500C500,223.853,276.142,0,0,0z"/>
</g>
</g></g><g transform="translate(352,44) scale(0.44,0.44)"><g transform="" style="fill: rgb(140, 29, 64);">
<rect width="100" height="100"/>
</g></g><g transform="translate(396,44) scale(0.44,0.44)"><g transform="" style="fill: rgb(140, 29, 64);">
<rect width="100" height="100"/>
</g></g><g transform="translate(440,44) scale(0.088,0.088)"><g transform="" style="fill: rgb(140, 29, 64);">
<g>
	<path d="M0,0v500h500C500,223.853,276.142,0,0,0z"/>
</g>
</g></g><g transform="translate(572,44) scale(0.44,0.44)"><g transform="" style="fill: rgb(140, 29, 64);">
<rect width="100" height="100"/>
</g></g><g transform="translate(704,44) scale(0.088,0.088)"><g transform="" style="fill: rgb(140, 29, 64);">
<path d="M250,0c138.077,0,250,111.93,250,250c0,138.077-111.923,250-250,250C111.93,500,0,388.077,0,250C0,111.93,111.93,0,250,0z"
	/>
</g></g><g transform="translate(352,88) scale(0.088,0.088)"><g transform="" style="fill: rgb(140, 29, 64);">
<g>
	<path d="M500,500V0H0C0.001,276.142,223.853,500,500,500z"/>
</g>
</g></g><g transform="translate(396,88) scale(0.44,0.44)"><g transform="" style="fill: rgb(140, 29, 64);">
<rect width="100" height="100"/>
</g></g><g transform="translate(440,88) scale(0.44,0.44)"><g transform="" style="fill: rgb(140, 29, 64);">
<rect width="100" height="100"/>
</g></g><g transform="translate(484,88) scale(0.088,0.088)"><g transform="" style="fill: rgb(140, 29, 64);">
<path d="M250,500c-58.271,0-250,0-250,0s0-170.207,0-250C0,187.676,0,0,0,0s174.261,0,250,0c138.064,0,250,111.929,250,250
	C500,388.064,388.064,500,250,500z"/>
</g></g><g transform="translate(572,88) scale(0.44,0.44)"><g transform="" style="fill: rgb(140, 29, 64);">
<rect width="100" height="100"/>
</g></g><g transform="translate(660,88) scale(0.088,0.088)"><g transform="" style="fill: rgb(140, 29, 64);">
<path d="M250,0c138.077,0,250,111.93,250,250c0,138.077-111.923,250-250,250C111.93,500,0,388.077,0,250C0,111.93,111.93,0,250,0z"
	/>
</g></g><g transform="translate(440,132) scale(0.088,0.088)"><g transform="" style="fill: rgb(140, 29, 64);">
<path d="M0,250C0,191.729,0,0,0,0s170.201,0,250,0c62.324,0,250,0,250,0s0,174.261,0,250c0,138.064-111.936,250-250,250
	C111.929,500,0,388.064,0,250z"/>
</g></g><g transform="translate(528,132) scale(0.088,0.088)"><g transform="" style="fill: rgb(140, 29, 64);">
<g>
	<path d="M0,500h500V0C223.861,0.001,0,223.854,0,500z"/>
</g>
</g></g><g transform="translate(572,132) scale(0.44,0.44)"><g transform="" style="fill: rgb(140, 29, 64);">
<rect width="100" height="100"/>
</g></g><g transform="translate(704,132) scale(0.088,0.088)"><g transform="" style="fill: rgb(140, 29, 64);">
<path d="M500,250c0,58.266,0,250,0,250s-170.194,0-250-0.012c-62.324,0.012-250,0-250,0s0-174.241,0-249.994
	C0.006,111.931,111.929,0,249.994,0C388.064,0,500,111.93,500,250z"/>
</g></g><g transform="translate(352,176) scale(0.088,0.088)"><g transform="" style="fill: rgb(140, 29, 64);">
<path d="M250,0c138.077,0,250,111.93,250,250c0,138.077-111.923,250-250,250C111.93,500,0,388.077,0,250C0,111.93,111.93,0,250,0z"
	/>
</g></g><g transform="translate(484,176) scale(0.088,0.088)"><g transform="" style="fill: rgb(140, 29, 64);">
<path d="M250,0c58.27,0,250,0,250,0s0,170.182,0,250c0,62.305,0,250,0,250s-174.219,0-250,0
	C111.881,500,0,388.021,0,250C0,111.963,111.881,0,250,0z"/>
</g></g><g transform="translate(528,176) scale(0.44,0.44)"><g transform="" style="fill: rgb(140, 29, 64);">
<rect width="100" height="100"/>
</g></g><g transform="translate(572,176) scale(0.44,0.44)"><g transform="" style="fill: rgb(140, 29, 64);">
<rect width="100" height="100"/>
</g></g><g transform="translate(616,176) scale(0.088,0.088)"><g transform="" style="fill: rgb(140, 29, 64);">
<path d="M250,500c-58.271,0-250,0-250,0s0-170.207,0-250C0,187.676,0,0,0,0s174.261,0,250,0c138.064,0,250,111.929,250,250
	C500,388.064,388.064,500,250,500z"/>
</g></g><g transform="translate(704,176) scale(0.44,0.44)"><g transform="" style="fill: rgb(140, 29, 64);">
<rect width="100" height="100"/>
</g></g><g transform="translate(396,220) scale(0.088,0.088)"><g transform="" style="fill: rgb(140, 29, 64);">
<path d="M250,0c58.27,0,250,0,250,0s0,170.182,0,250c0,62.305,0,250,0,250s-174.219,0-250,0
	C111.881,500,0,388.021,0,250C0,111.963,111.881,0,250,0z"/>
</g></g><g transform="translate(440,220) scale(0.088,0.088)"><g transform="" style="fill: rgb(140, 29, 64);">
<g>
	<path d="M0,0v500h500C500,223.853,276.142,0,0,0z"/>
</g>
</g></g><g transform="translate(704,220) scale(0.44,0.44)"><g transform="" style="fill: rgb(140, 29, 64);">
<rect width="100" height="100"/>
</g></g><g transform="translate(352,264) scale(0.088,0.088)"><g transform="" style="fill: rgb(140, 29, 64);">
<path d="M250,0c138.077,0,250,111.93,250,250c0,138.077-111.923,250-250,250C111.93,500,0,388.077,0,250C0,111.93,111.93,0,250,0z"
	/>
</g></g><g transform="translate(440,264) scale(0.088,0.088)"><g transform="" style="fill: rgb(140, 29, 64);">
<path d="M0,250C0,191.729,0,0,0,0s170.201,0,250,0c62.324,0,250,0,250,0s0,174.261,0,250c0,138.064-111.936,250-250,250
	C111.929,500,0,388.064,0,250z"/>
</g></g><g transform="translate(528,264) scale(0.088,0.088)"><g transform="" style="fill: rgb(140, 29, 64);">
<path d="M500,250c0,58.266,0,250,0,250s-170.194,0-250-0.012c-62.324,0.012-250,0-250,0s0-174.241,0-249.994
	C0.006,111.931,111.929,0,249.994,0C388.064,0,500,111.93,500,250z"/>
</g></g><g transform="translate(616,264) scale(0.088,0.088)"><g transform="" style="fill: rgb(140, 29, 64);">
<path d="M250,0c138.077,0,250,111.93,250,250c0,138.077-111.923,250-250,250C111.93,500,0,388.077,0,250C0,111.93,111.93,0,250,0z"
	/>
</g></g><g transform="translate(704,264) scale(0.44,0.44)"><g transform="" style="fill: rgb(140, 29, 64);">
<rect width="100" height="100"/>
</g></g><g transform="translate(396,308) scale(0.088,0.088)"><g transform="" style="fill: rgb(140, 29, 64);">
<path d="M500,250c0,58.266,0,250,0,250s-170.194,0-250-0.012c-62.324,0.012-250,0-250,0s0-174.241,0-249.994
	C0.006,111.931,111.929,0,249.994,0C388.064,0,500,111.93,500,250z"/>
</g></g><g transform="translate(484,308) scale(0.088,0.088)"><g transform="" style="fill: rgb(140, 29, 64);">
<path d="M250,0c58.27,0,250,0,250,0s0,170.182,0,250c0,62.305,0,250,0,250s-174.219,0-250,0
	C111.881,500,0,388.021,0,250C0,111.963,111.881,0,250,0z"/>
</g></g><g transform="translate(528,308) scale(0.44,0.44)"><g transform="" style="fill: rgb(140, 29, 64);">
<rect width="100" height="100"/>
</g></g><g transform="translate(572,308) scale(0.088,0.088)"><g transform="" style="fill: rgb(140, 29, 64);">
<path d="M250,500c-58.271,0-250,0-250,0s0-170.207,0-250C0,187.676,0,0,0,0s174.261,0,250,0c138.064,0,250,111.929,250,250
	C500,388.064,388.064,500,250,500z"/>
</g></g><g transform="translate(704,308) scale(0.44,0.44)"><g transform="" style="fill: rgb(140, 29, 64);">
<rect width="100" height="100"/>
</g></g><g transform="translate(0,352) scale(0.088,0.088)"><g transform="" style="fill: rgb(140, 29, 64);">
<path d="M500,250c0,58.266,0,250,0,250s-170.194,0-250-0.012c-62.324,0.012-250,0-250,0s0-174.241,0-249.994
	C0.006,111.931,111.929,0,249.994,0C388.064,0,500,111.93,500,250z"/>
</g></g><g transform="translate(132,352) scale(0.088,0.088)"><g transform="" style="fill: rgb(140, 29, 64);">
<path d="M250,0c58.27,0,250,0,250,0s0,170.182,0,250c0,62.305,0,250,0,250s-174.219,0-250,0
	C111.881,500,0,388.021,0,250C0,111.963,111.881,0,250,0z"/>
</g></g><g transform="translate(176,352) scale(0.44,0.44)"><g transform="" style="fill: rgb(140, 29, 64);">
<rect width="100" height="100"/>
</g></g><g transform="translate(220,352) scale(0.44,0.44)"><g transform="" style="fill: rgb(140, 29, 64);">
<rect width="100" height="100"/>
</g></g><g transform="translate(264,352) scale(0.44,0.44)"><g transform="" style="fill: rgb(140, 29, 64);">
<rect width="100" height="100"/>
</g></g><g transform="translate(308,352) scale(0.44,0.44)"><g transform="" style="fill: rgb(140, 29, 64);">
<rect width="100" height="100"/>
</g></g><g transform="translate(352,352) scale(0.44,0.44)"><g transform="" style="fill: rgb(140, 29, 64);">
<rect width="100" height="100"/>
</g></g><g transform="translate(396,352) scale(0.44,0.44)"><g transform="" style="fill: rgb(140, 29, 64);">
<rect width="100" height="100"/>
</g></g><g transform="translate(704,352) scale(0.088,0.088)"><g transform="" style="fill: rgb(140, 29, 64);">
<g>
	<path d="M500,500V0H0C0.001,276.142,223.853,500,500,500z"/>
</g>
</g></g><g transform="translate(748,352) scale(0.088,0.088)"><g transform="" style="fill: rgb(140, 29, 64);">
<path d="M250,500c-58.271,0-250,0-250,0s0-170.207,0-250C0,187.676,0,0,0,0s174.261,0,250,0c138.064,0,250,111.929,250,250
	C500,388.064,388.064,500,250,500z"/>
</g></g><g transform="translate(880,352) scale(0.088,0.088)"><g transform="" style="fill: rgb(140, 29, 64);">
<path d="M500,250c0,58.266,0,250,0,250s-170.194,0-250-0.012c-62.324,0.012-250,0-250,0s0-174.241,0-249.994
	C0.006,111.931,111.929,0,249.994,0C388.064,0,500,111.93,500,250z"/>
</g></g><g transform="translate(968,352) scale(0.088,0.088)"><g transform="" style="fill: rgb(140, 29, 64);">
<path d="M250,0c58.27,0,250,0,250,0s0,170.182,0,250c0,62.305,0,250,0,250s-174.219,0-250,0
	C111.881,500,0,388.021,0,250C0,111.963,111.881,0,250,0z"/>
</g></g><g transform="translate(1012,352) scale(0.44,0.44)"><g transform="" style="fill: rgb(140, 29, 64);">
<rect width="100" height="100"/>
</g></g><g transform="translate(1056,352) scale(0.088,0.088)"><g transform="" style="fill: rgb(140, 29, 64);">
<path d="M250,500c-58.271,0-250,0-250,0s0-170.207,0-250C0,187.676,0,0,0,0s174.261,0,250,0c138.064,0,250,111.929,250,250
	C500,388.064,388.064,500,250,500z"/>
</g></g><g transform="translate(0,396) scale(0.44,0.44)"><g transform="" style="fill: rgb(140, 29, 64);">
<rect width="100" height="100"/>
</g></g><g transform="translate(44,396) scale(0.088,0.088)"><g transform="" style="fill: rgb(140, 29, 64);">
<g>
	<path d="M0,0v500h500C500,223.853,276.142,0,0,0z"/>
</g>
</g></g><g transform="translate(176,396) scale(0.088,0.088)"><g transform="" style="fill: rgb(140, 29, 64);">
<g>
	<path d="M500,500V0H0C0.001,276.142,223.853,500,500,500z"/>
</g>
</g></g><g transform="translate(220,396) scale(0.088,0.088)"><g transform="" style="fill: rgb(140, 29, 64);">
<g>
	<path d="M500,0H0v500C276.142,500,500,276.142,500,0z"/>
</g>
</g></g><g transform="translate(308,396) scale(0.44,0.44)"><g transform="" style="fill: rgb(140, 29, 64);">
<rect width="100" height="100"/>
</g></g><g transform="translate(396,396) scale(0.44,0.44)"><g transform="" style="fill: rgb(140, 29, 64);">
<rect width="100" height="100"/>
</g></g><g transform="translate(440,396) scale(0.088,0.088)"><g transform="" style="fill: rgb(140, 29, 64);">
<path d="M250,500c-58.271,0-250,0-250,0s0-170.207,0-250C0,187.676,0,0,0,0s174.261,0,250,0c138.064,0,250,111.929,250,250
	C500,388.064,388.064,500,250,500z"/>
</g></g><g transform="translate(572,396) scale(0.088,0.088)"><g transform="" style="fill: rgb(140, 29, 64);">
<g>
	<path d="M0,500h500V0C223.861,0.001,0,223.854,0,500z"/>
</g>
</g></g><g transform="translate(616,396) scale(0.44,0.44)"><g transform="" style="fill: rgb(140, 29, 64);">
<rect width="100" height="100"/>
</g></g><g transform="translate(660,396) scale(0.088,0.088)"><g transform="" style="fill: rgb(140, 29, 64);">
<g>
	<path d="M0,0v500h500C500,223.853,276.142,0,0,0z"/>
</g>
</g></g><g transform="translate(836,396) scale(0.088,0.088)"><g transform="" style="fill: rgb(140, 29, 64);">
<path d="M250,0c58.27,0,250,0,250,0s0,170.182,0,250c0,62.305,0,250,0,250s-174.219,0-250,0
	C111.881,500,0,388.021,0,250C0,111.963,111.881,0,250,0z"/>
</g></g><g transform="translate(880,396) scale(0.44,0.44)"><g transform="" style="fill: rgb(140, 29, 64);">
<rect width="100" height="100"/>
</g></g><g transform="translate(924,396) scale(0.088,0.088)"><g transform="" style="fill: rgb(140, 29, 64);">
<g>
	<path d="M0,0v500h500C500,223.853,276.142,0,0,0z"/>
</g>
</g></g><g transform="translate(0,440) scale(0.088,0.088)"><g transform="" style="fill: rgb(140, 29, 64);">
<g>
	<path d="M500,500V0H0C0.001,276.142,223.853,500,500,500z"/>
</g>
</g></g><g transform="translate(44,440) scale(0.44,0.44)"><g transform="" style="fill: rgb(140, 29, 64);">
<rect width="100" height="100"/>
</g></g><g transform="translate(132,440) scale(0.088,0.088)"><g transform="" style="fill: rgb(140, 29, 64);">
<path d="M250,0c138.077,0,250,111.93,250,250c0,138.077-111.923,250-250,250C111.93,500,0,388.077,0,250C0,111.93,111.93,0,250,0z"
	/>
</g></g><g transform="translate(264,440) scale(0.088,0.088)"><g transform="" style="fill: rgb(140, 29, 64);">
<path d="M250,0c58.27,0,250,0,250,0s0,170.182,0,250c0,62.305,0,250,0,250s-174.219,0-250,0
	C111.881,500,0,388.021,0,250C0,111.963,111.881,0,250,0z"/>
</g></g><g transform="translate(308,440) scale(0.44,0.44)"><g transform="" style="fill: rgb(140, 29, 64);">
<rect width="100" height="100"/>
</g></g><g transform="translate(352,440) scale(0.44,0.44)"><g transform="" style="fill: rgb(140, 29, 64);">
<rect width="100" height="100"/>
</g></g><g transform="translate(396,440) scale(0.44,0.44)"><g transform="" style="fill: rgb(140, 29, 64);">
<rect width="100" height="100"/>
</g></g><g transform="translate(572,440) scale(0.088,0.088)"><g transform="" style="fill: rgb(140, 29, 64);">
<path d="M0,250C0,191.729,0,0,0,0s170.201,0,250,0c62.324,0,250,0,250,0s0,174.261,0,250c0,138.064-111.936,250-250,250
	C111.929,500,0,388.064,0,250z"/>
</g></g><g transform="translate(660,440) scale(0.44,0.44)"><g transform="" style="fill: rgb(140, 29, 64);">
<rect width="100" height="100"/>
</g></g><g transform="translate(704,440) scale(0.088,0.088)"><g transform="" style="fill: rgb(140, 29, 64);">
<path d="M250,500c-58.271,0-250,0-250,0s0-170.207,0-250C0,187.676,0,0,0,0s174.261,0,250,0c138.064,0,250,111.929,250,250
	C500,388.064,388.064,500,250,500z"/>
</g></g><g transform="translate(924,440) scale(0.44,0.44)"><g transform="" style="fill: rgb(140, 29, 64);">
<rect width="100" height="100"/>
</g></g><g transform="translate(1056,440) scale(0.088,0.088)"><g transform="" style="fill: rgb(140, 29, 64);">
<path d="M500,250c0,58.266,0,250,0,250s-170.194,0-250-0.012c-62.324,0.012-250,0-250,0s0-174.241,0-249.994
	C0.006,111.931,111.929,0,249.994,0C388.064,0,500,111.93,500,250z"/>
</g></g><g transform="translate(44,484) scale(0.088,0.088)"><g transform="" style="fill: rgb(140, 29, 64);">
<g>
	<path d="M500,500V0H0C0.001,276.142,223.853,500,500,500z"/>
</g>
</g></g><g transform="translate(88,484) scale(0.088,0.088)"><g transform="" style="fill: rgb(140, 29, 64);">
<g>
	<path d="M0,0v500h500C500,223.853,276.142,0,0,0z"/>
</g>
</g></g><g transform="translate(176,484) scale(0.088,0.088)"><g transform="" style="fill: rgb(140, 29, 64);">
<g>
	<path d="M0,500h500V0C223.861,0.001,0,223.854,0,500z"/>
</g>
</g></g><g transform="translate(220,484) scale(0.088,0.088)"><g transform="" style="fill: rgb(140, 29, 64);">
<path d="M250,500c-58.271,0-250,0-250,0s0-170.207,0-250C0,187.676,0,0,0,0s174.261,0,250,0c138.064,0,250,111.929,250,250
	C500,388.064,388.064,500,250,500z"/>
</g></g><g transform="translate(308,484) scale(0.44,0.44)"><g transform="" style="fill: rgb(140, 29, 64);">
<rect width="100" height="100"/>
</g></g><g transform="translate(352,484) scale(0.44,0.44)"><g transform="" style="fill: rgb(140, 29, 64);">
<rect width="100" height="100"/>
</g></g><g transform="translate(396,484) scale(0.088,0.088)"><g transform="" style="fill: rgb(140, 29, 64);">
<g>
	<path d="M500,0H0v500C276.142,500,500,276.142,500,0z"/>
</g>
</g></g><g transform="translate(528,484) scale(0.088,0.088)"><g transform="" style="fill: rgb(140, 29, 64);">
<path d="M500,250c0,58.266,0,250,0,250s-170.194,0-250-0.012c-62.324,0.012-250,0-250,0s0-174.241,0-249.994
	C0.006,111.931,111.929,0,249.994,0C388.064,0,500,111.93,500,250z"/>
</g></g><g transform="translate(660,484) scale(0.088,0.088)"><g transform="" style="fill: rgb(140, 29, 64);">
<path d="M0,250C0,191.729,0,0,0,0s170.201,0,250,0c62.324,0,250,0,250,0s0,174.261,0,250c0,138.064-111.936,250-250,250
	C111.929,500,0,388.064,0,250z"/>
</g></g><g transform="translate(924,484) scale(0.44,0.44)"><g transform="" style="fill: rgb(140, 29, 64);">
<rect width="100" height="100"/>
</g></g><g transform="translate(968,484) scale(0.088,0.088)"><g transform="" style="fill: rgb(140, 29, 64);">
<path d="M250,500c-58.271,0-250,0-250,0s0-170.207,0-250C0,187.676,0,0,0,0s174.261,0,250,0c138.064,0,250,111.929,250,250
	C500,388.064,388.064,500,250,500z"/>
</g></g><g transform="translate(1056,484) scale(0.088,0.088)"><g transform="" style="fill: rgb(140, 29, 64);">
<path d="M0,250C0,191.729,0,0,0,0s170.201,0,250,0c62.324,0,250,0,250,0s0,174.261,0,250c0,138.064-111.936,250-250,250
	C111.929,500,0,388.064,0,250z"/>
</g></g><g transform="translate(88,528) scale(0.088,0.088)"><g transform="" style="fill: rgb(140, 29, 64);">
<path d="M0,250C0,191.729,0,0,0,0s170.201,0,250,0c62.324,0,250,0,250,0s0,174.261,0,250c0,138.064-111.936,250-250,250
	C111.929,500,0,388.064,0,250z"/>
</g></g><g transform="translate(176,528) scale(0.088,0.088)"><g transform="" style="fill: rgb(140, 29, 64);">
<path d="M0,250C0,191.729,0,0,0,0s170.201,0,250,0c62.324,0,250,0,250,0s0,174.261,0,250c0,138.064-111.936,250-250,250
	C111.929,500,0,388.064,0,250z"/>
</g></g><g transform="translate(264,528) scale(0.088,0.088)"><g transform="" style="fill: rgb(140, 29, 64);">
<path d="M250,0c58.27,0,250,0,250,0s0,170.182,0,250c0,62.305,0,250,0,250s-174.219,0-250,0
	C111.881,500,0,388.021,0,250C0,111.963,111.881,0,250,0z"/>
</g></g><g transform="translate(308,528) scale(0.44,0.44)"><g transform="" style="fill: rgb(140, 29, 64);">
<rect width="100" height="100"/>
</g></g><g transform="translate(352,528) scale(0.088,0.088)"><g transform="" style="fill: rgb(140, 29, 64);">
<g>
	<path d="M500,0H0v500C276.142,500,500,276.142,500,0z"/>
</g>
</g></g><g transform="translate(484,528) scale(0.088,0.088)"><g transform="" style="fill: rgb(140, 29, 64);">
<path d="M250,0c58.27,0,250,0,250,0s0,170.182,0,250c0,62.305,0,250,0,250s-174.219,0-250,0
	C111.881,500,0,388.021,0,250C0,111.963,111.881,0,250,0z"/>
</g></g><g transform="translate(528,528) scale(0.088,0.088)"><g transform="" style="fill: rgb(140, 29, 64);">
<g>
	<path d="M500,0H0v500C276.142,500,500,276.142,500,0z"/>
</g>
</g></g><g transform="translate(704,528) scale(0.088,0.088)"><g transform="" style="fill: rgb(140, 29, 64);">
<path d="M500,250c0,58.266,0,250,0,250s-170.194,0-250-0.012c-62.324,0.012-250,0-250,0s0-174.241,0-249.994
	C0.006,111.931,111.929,0,249.994,0C388.064,0,500,111.93,500,250z"/>
</g></g><g transform="translate(792,528) scale(0.088,0.088)"><g transform="" style="fill: rgb(140, 29, 64);">
<path d="M250,0c138.077,0,250,111.93,250,250c0,138.077-111.923,250-250,250C111.93,500,0,388.077,0,250C0,111.93,111.93,0,250,0z"
	/>
</g></g><g transform="translate(880,528) scale(0.088,0.088)"><g transform="" style="fill: rgb(140, 29, 64);">
<g>
	<path d="M0,500h500V0C223.861,0.001,0,223.854,0,500z"/>
</g>
</g></g><g transform="translate(924,528) scale(0.44,0.44)"><g transform="" style="fill: rgb(140, 29, 64);">
<rect width="100" height="100"/>
</g></g><g transform="translate(1012,528) scale(0.088,0.088)"><g transform="" style="fill: rgb(140, 29, 64);">
<path d="M250,0c138.077,0,250,111.93,250,250c0,138.077-111.923,250-250,250C111.93,500,0,388.077,0,250C0,111.93,111.93,0,250,0z"
	/>
</g></g><g transform="translate(0,572) scale(0.088,0.088)"><g transform="" style="fill: rgb(140, 29, 64);">
<g>
	<path d="M0,500h500V0C223.861,0.001,0,223.854,0,500z"/>
</g>
</g></g><g transform="translate(44,572) scale(0.088,0.088)"><g transform="" style="fill: rgb(140, 29, 64);">
<g>
	<path d="M0,0v500h500C500,223.853,276.142,0,0,0z"/>
</g>
</g></g><g transform="translate(396,572) scale(0.088,0.088)"><g transform="" style="fill: rgb(140, 29, 64);">
<path d="M250,0c138.077,0,250,111.93,250,250c0,138.077-111.923,250-250,250C111.93,500,0,388.077,0,250C0,111.93,111.93,0,250,0z"
	/>
</g></g><g transform="translate(572,572) scale(0.088,0.088)"><g transform="" style="fill: rgb(140, 29, 64);">
<path d="M250,0c138.077,0,250,111.93,250,250c0,138.077-111.923,250-250,250C111.93,500,0,388.077,0,250C0,111.93,111.93,0,250,0z"
	/>
</g></g><g transform="translate(660,572) scale(0.088,0.088)"><g transform="" style="fill: rgb(140, 29, 64);">
<g>
	<path d="M0,500h500V0C223.861,0.001,0,223.854,0,500z"/>
</g>
</g></g><g transform="translate(704,572) scale(0.44,0.44)"><g transform="" style="fill: rgb(140, 29, 64);">
<rect width="100" height="100"/>
</g></g><g transform="translate(880,572) scale(0.44,0.44)"><g transform="" style="fill: rgb(140, 29, 64);">
<rect width="100" height="100"/>
</g></g><g transform="translate(924,572) scale(0.088,0.088)"><g transform="" style="fill: rgb(140, 29, 64);">
<g>
	<path d="M500,0H0v500C276.142,500,500,276.142,500,0z"/>
</g>
</g></g><g transform="translate(0,616) scale(0.44,0.44)"><g transform="" style="fill: rgb(140, 29, 64);">
<rect width="100" height="100"/>
</g></g><g transform="translate(44,616) scale(0.088,0.088)"><g transform="" style="fill: rgb(140, 29, 64);">
<g>
	<path d="M500,0H0v500C276.142,500,500,276.142,500,0z"/>
</g>
</g></g><g transform="translate(132,616) scale(0.088,0.088)"><g transform="" style="fill: rgb(140, 29, 64);">
<g>
	<path d="M0,500h500V0C223.861,0.001,0,223.854,0,500z"/>
</g>
</g></g><g transform="translate(176,616) scale(0.088,0.088)"><g transform="" style="fill: rgb(140, 29, 64);">
<g>
	<path d="M0,0v500h500C500,223.853,276.142,0,0,0z"/>
</g>
</g></g><g transform="translate(264,616) scale(0.088,0.088)"><g transform="" style="fill: rgb(140, 29, 64);">
<path d="M250,0c138.077,0,250,111.93,250,250c0,138.077-111.923,250-250,250C111.93,500,0,388.077,0,250C0,111.93,111.93,0,250,0z"
	/>
</g></g><g transform="translate(440,616) scale(0.088,0.088)"><g transform="" style="fill: rgb(140, 29, 64);">
<g>
	<path d="M0,500h500V0C223.861,0.001,0,223.854,0,500z"/>
</g>
</g></g><g transform="translate(484,616) scale(0.44,0.44)"><g transform="" style="fill: rgb(140, 29, 64);">
<rect width="100" height="100"/>
</g></g><g transform="translate(528,616) scale(0.088,0.088)"><g transform="" style="fill: rgb(140, 29, 64);">
<path d="M250,500c-58.271,0-250,0-250,0s0-170.207,0-250C0,187.676,0,0,0,0s174.261,0,250,0c138.064,0,250,111.929,250,250
	C500,388.064,388.064,500,250,500z"/>
</g></g><g transform="translate(616,616) scale(0.088,0.088)"><g transform="" style="fill: rgb(140, 29, 64);">
<g>
	<path d="M0,500h500V0C223.861,0.001,0,223.854,0,500z"/>
</g>
</g></g><g transform="translate(660,616) scale(0.44,0.44)"><g transform="" style="fill: rgb(140, 29, 64);">
<rect width="100" height="100"/>
</g></g><g transform="translate(704,616) scale(0.088,0.088)"><g transform="" style="fill: rgb(140, 29, 64);">
<g>
	<path d="M500,0H0v500C276.142,500,500,276.142,500,0z"/>
</g>
</g></g><g transform="translate(880,616) scale(0.088,0.088)"><g transform="" style="fill: rgb(140, 29, 64);">
<path d="M0,250C0,191.729,0,0,0,0s170.201,0,250,0c62.324,0,250,0,250,0s0,174.261,0,250c0,138.064-111.936,250-250,250
	C111.929,500,0,388.064,0,250z"/>
</g></g><g transform="translate(968,616) scale(0.088,0.088)"><g transform="" style="fill: rgb(140, 29, 64);">
<g>
	<path d="M0,500h500V0C223.861,0.001,0,223.854,0,500z"/>
</g>
</g></g><g transform="translate(1012,616) scale(0.44,0.44)"><g transform="" style="fill: rgb(140, 29, 64);">
<rect width="100" height="100"/>
</g></g><g transform="translate(1056,616) scale(0.088,0.088)"><g transform="" style="fill: rgb(140, 29, 64);">
<path d="M250,500c-58.271,0-250,0-250,0s0-170.207,0-250C0,187.676,0,0,0,0s174.261,0,250,0c138.064,0,250,111.929,250,250
	C500,388.064,388.064,500,250,500z"/>
</g></g><g transform="translate(0,660) scale(0.44,0.44)"><g transform="" style="fill: rgb(140, 29, 64);">
<rect width="100" height="100"/>
</g></g><g transform="translate(132,660) scale(0.088,0.088)"><g transform="" style="fill: rgb(140, 29, 64);">
<g>
	<path d="M500,500V0H0C0.001,276.142,223.853,500,500,500z"/>
</g>
</g></g><g transform="translate(176,660) scale(0.44,0.44)"><g transform="" style="fill: rgb(140, 29, 64);">
<rect width="100" height="100"/>
</g></g><g transform="translate(220,660) scale(0.088,0.088)"><g transform="" style="fill: rgb(140, 29, 64);">
<g>
	<path d="M0,0v500h500C500,223.853,276.142,0,0,0z"/>
</g>
</g></g><g transform="translate(308,660) scale(0.088,0.088)"><g transform="" style="fill: rgb(140, 29, 64);">
<g>
	<path d="M0,500h500V0C223.861,0.001,0,223.854,0,500z"/>
</g>
</g></g><g transform="translate(352,660) scale(0.088,0.088)"><g transform="" style="fill: rgb(140, 29, 64);">
<g>
	<path d="M0,0v500h500C500,223.853,276.142,0,0,0z"/>
</g>
</g></g><g transform="translate(440,660) scale(0.44,0.44)"><g transform="" style="fill: rgb(140, 29, 64);">
<rect width="100" height="100"/>
</g></g><g transform="translate(484,660) scale(0.088,0.088)"><g transform="" style="fill: rgb(140, 29, 64);">
<g>
	<path d="M500,0H0v500C276.142,500,500,276.142,500,0z"/>
</g>
</g></g><g transform="translate(616,660) scale(0.088,0.088)"><g transform="" style="fill: rgb(140, 29, 64);">
<g>
	<path d="M500,500V0H0C0.001,276.142,223.853,500,500,500z"/>
</g>
</g></g><g transform="translate(660,660) scale(0.44,0.44)"><g transform="" style="fill: rgb(140, 29, 64);">
<rect width="100" height="100"/>
</g></g><g transform="translate(792,660) scale(0.088,0.088)"><g transform="" style="fill: rgb(140, 29, 64);">
<g>
	<path d="M0,500h500V0C223.861,0.001,0,223.854,0,500z"/>
</g>
</g></g><g transform="translate(836,660) scale(0.088,0.088)"><g transform="" style="fill: rgb(140, 29, 64);">
<g>
	<path d="M0,0v500h500C500,223.853,276.142,0,0,0z"/>
</g>
</g></g><g transform="translate(968,660) scale(0.44,0.44)"><g transform="" style="fill: rgb(140, 29, 64);">
<rect width="100" height="100"/>
</g></g><g transform="translate(0,704) scale(0.088,0.088)"><g transform="" style="fill: rgb(140, 29, 64);">
<path d="M0,250C0,191.729,0,0,0,0s170.201,0,250,0c62.324,0,250,0,250,0s0,174.261,0,250c0,138.064-111.936,250-250,250
	C111.929,500,0,388.064,0,250z"/>
</g></g><g transform="translate(88,704) scale(0.088,0.088)"><g transform="" style="fill: rgb(140, 29, 64);">
<path d="M250,0c138.077,0,250,111.93,250,250c0,138.077-111.923,250-250,250C111.93,500,0,388.077,0,250C0,111.93,111.93,0,250,0z"
	/>
</g></g><g transform="translate(176,704) scale(0.088,0.088)"><g transform="" style="fill: rgb(140, 29, 64);">
<g>
	<path d="M500,500V0H0C0.001,276.142,223.853,500,500,500z"/>
</g>
</g></g><g transform="translate(220,704) scale(0.44,0.44)"><g transform="" style="fill: rgb(140, 29, 64);">
<rect width="100" height="100"/>
</g></g><g transform="translate(264,704) scale(0.44,0.44)"><g transform="" style="fill: rgb(140, 29, 64);">
<rect width="100" height="100"/>
</g></g><g transform="translate(308,704) scale(0.44,0.44)"><g transform="" style="fill: rgb(140, 29, 64);">
<rect width="100" height="100"/>
</g></g><g transform="translate(352,704) scale(0.44,0.44)"><g transform="" style="fill: rgb(140, 29, 64);">
<rect width="100" height="100"/>
</g></g><g transform="translate(440,704) scale(0.088,0.088)"><g transform="" style="fill: rgb(140, 29, 64);">
<path d="M0,250C0,191.729,0,0,0,0s170.201,0,250,0c62.324,0,250,0,250,0s0,174.261,0,250c0,138.064-111.936,250-250,250
	C111.929,500,0,388.064,0,250z"/>
</g></g><g transform="translate(572,704) scale(0.088,0.088)"><g transform="" style="fill: rgb(140, 29, 64);">
<path d="M250,0c138.077,0,250,111.93,250,250c0,138.077-111.923,250-250,250C111.93,500,0,388.077,0,250C0,111.93,111.93,0,250,0z"
	/>
</g></g><g transform="translate(660,704) scale(0.44,0.44)"><g transform="" style="fill: rgb(140, 29, 64);">
<rect width="100" height="100"/>
</g></g><g transform="translate(704,704) scale(0.44,0.44)"><g transform="" style="fill: rgb(140, 29, 64);">
<rect width="100" height="100"/>
</g></g><g transform="translate(748,704) scale(0.44,0.44)"><g transform="" style="fill: rgb(140, 29, 64);">
<rect width="100" height="100"/>
</g></g><g transform="translate(792,704) scale(0.44,0.44)"><g transform="" style="fill: rgb(140, 29, 64);">
<rect width="100" height="100"/>
</g></g><g transform="translate(836,704) scale(0.44,0.44)"><g transform="" style="fill: rgb(140, 29, 64);">
<rect width="100" height="100"/>
</g></g><g transform="translate(880,704) scale(0.088,0.088)"><g transform="" style="fill: rgb(140, 29, 64);">
<g>
	<path d="M0,0v500h500C500,223.853,276.142,0,0,0z"/>
</g>
</g></g><g transform="translate(968,704) scale(0.088,0.088)"><g transform="" style="fill: rgb(140, 29, 64);">
<path d="M0,250C0,191.729,0,0,0,0s170.201,0,250,0c62.324,0,250,0,250,0s0,174.261,0,250c0,138.064-111.936,250-250,250
	C111.929,500,0,388.064,0,250z"/>
</g></g><g transform="translate(1056,704) scale(0.088,0.088)"><g transform="" style="fill: rgb(140, 29, 64);">
<path d="M250,0c138.077,0,250,111.93,250,250c0,138.077-111.923,250-250,250C111.93,500,0,388.077,0,250C0,111.93,111.93,0,250,0z"
	/>
</g></g><g transform="translate(352,748) scale(0.44,0.44)"><g transform="" style="fill: rgb(140, 29, 64);">
<rect width="100" height="100"/>
</g></g><g transform="translate(484,748) scale(0.088,0.088)"><g transform="" style="fill: rgb(140, 29, 64);">
<g>
	<path d="M0,500h500V0C223.861,0.001,0,223.854,0,500z"/>
</g>
</g></g><g transform="translate(528,748) scale(0.088,0.088)"><g transform="" style="fill: rgb(140, 29, 64);">
<path d="M250,500c-58.271,0-250,0-250,0s0-170.207,0-250C0,187.676,0,0,0,0s174.261,0,250,0c138.064,0,250,111.929,250,250
	C500,388.064,388.064,500,250,500z"/>
</g></g><g transform="translate(660,748) scale(0.44,0.44)"><g transform="" style="fill: rgb(140, 29, 64);">
<rect width="100" height="100"/>
</g></g><g transform="translate(704,748) scale(0.44,0.44)"><g transform="" style="fill: rgb(140, 29, 64);">
<rect width="100" height="100"/>
</g></g><g transform="translate(880,748) scale(0.44,0.44)"><g transform="" style="fill: rgb(140, 29, 64);">
<rect width="100" height="100"/>
</g></g><g transform="translate(1012,748) scale(0.088,0.088)"><g transform="" style="fill: rgb(140, 29, 64);">
<path d="M250,0c138.077,0,250,111.93,250,250c0,138.077-111.923,250-250,250C111.93,500,0,388.077,0,250C0,111.93,111.93,0,250,0z"
	/>
</g></g><g transform="translate(352,792) scale(0.44,0.44)"><g transform="" style="fill: rgb(140, 29, 64);">
<rect width="100" height="100"/>
</g></g><g transform="translate(396,792) scale(0.088,0.088)"><g transform="" style="fill: rgb(140, 29, 64);">
<path d="M250,500c-58.271,0-250,0-250,0s0-170.207,0-250C0,187.676,0,0,0,0s174.261,0,250,0c138.064,0,250,111.929,250,250
	C500,388.064,388.064,500,250,500z"/>
</g></g><g transform="translate(484,792) scale(0.088,0.088)"><g transform="" style="fill: rgb(140, 29, 64);">
<path d="M0,250C0,191.729,0,0,0,0s170.201,0,250,0c62.324,0,250,0,250,0s0,174.261,0,250c0,138.064-111.936,250-250,250
	C111.929,500,0,388.064,0,250z"/>
</g></g><g transform="translate(616,792) scale(0.088,0.088)"><g transform="" style="fill: rgb(140, 29, 64);">
<path d="M250,0c58.27,0,250,0,250,0s0,170.182,0,250c0,62.305,0,250,0,250s-174.219,0-250,0
	C111.881,500,0,388.021,0,250C0,111.963,111.881,0,250,0z"/>
</g></g><g transform="translate(660,792) scale(0.44,0.44)"><g transform="" style="fill: rgb(140, 29, 64);">
<rect width="100" height="100"/>
</g></g><g transform="translate(704,792) scale(0.44,0.44)"><g transform="" style="fill: rgb(140, 29, 64);">
<rect width="100" height="100"/>
</g></g><g transform="translate(792,792) scale(0.088,0.088)"><g transform="" style="fill: rgb(140, 29, 64);">
<path d="M250,0c138.077,0,250,111.93,250,250c0,138.077-111.923,250-250,250C111.93,500,0,388.077,0,250C0,111.93,111.93,0,250,0z"
	/>
</g></g><g transform="translate(880,792) scale(0.44,0.44)"><g transform="" style="fill: rgb(140, 29, 64);">
<rect width="100" height="100"/>
</g></g><g transform="translate(924,792) scale(0.088,0.088)"><g transform="" style="fill: rgb(140, 29, 64);">
<path d="M250,500c-58.271,0-250,0-250,0s0-170.207,0-250C0,187.676,0,0,0,0s174.261,0,250,0c138.064,0,250,111.929,250,250
	C500,388.064,388.064,500,250,500z"/>
</g></g><g transform="translate(1056,792) scale(0.088,0.088)"><g transform="" style="fill: rgb(140, 29, 64);">
<path d="M250,0c138.077,0,250,111.93,250,250c0,138.077-111.923,250-250,250C111.93,500,0,388.077,0,250C0,111.93,111.93,0,250,0z"
	/>
</g></g><g transform="translate(352,836) scale(0.44,0.44)"><g transform="" style="fill: rgb(140, 29, 64);">
<rect width="100" height="100"/>
</g></g><g transform="translate(528,836) scale(0.088,0.088)"><g transform="" style="fill: rgb(140, 29, 64);">
<g>
	<path d="M0,500h500V0C223.861,0.001,0,223.854,0,500z"/>
</g>
</g></g><g transform="translate(572,836) scale(0.088,0.088)"><g transform="" style="fill: rgb(140, 29, 64);">
<path d="M250,500c-58.271,0-250,0-250,0s0-170.207,0-250C0,187.676,0,0,0,0s174.261,0,250,0c138.064,0,250,111.929,250,250
	C500,388.064,388.064,500,250,500z"/>
</g></g><g transform="translate(660,836) scale(0.44,0.44)"><g transform="" style="fill: rgb(140, 29, 64);">
<rect width="100" height="100"/>
</g></g><g transform="translate(704,836) scale(0.44,0.44)"><g transform="" style="fill: rgb(140, 29, 64);">
<rect width="100" height="100"/>
</g></g><g transform="translate(880,836) scale(0.44,0.44)"><g transform="" style="fill: rgb(140, 29, 64);">
<rect width="100" height="100"/>
</g></g><g transform="translate(1012,836) scale(0.088,0.088)"><g transform="" style="fill: rgb(140, 29, 64);">
<path d="M500,250c0,58.266,0,250,0,250s-170.194,0-250-0.012c-62.324,0.012-250,0-250,0s0-174.241,0-249.994
	C0.006,111.931,111.929,0,249.994,0C388.064,0,500,111.93,500,250z"/>
</g></g><g transform="translate(352,880) scale(0.44,0.44)"><g transform="" style="fill: rgb(140, 29, 64);">
<rect width="100" height="100"/>
</g></g><g transform="translate(396,880) scale(0.44,0.44)"><g transform="" style="fill: rgb(140, 29, 64);">
<rect width="100" height="100"/>
</g></g><g transform="translate(440,880) scale(0.088,0.088)"><g transform="" style="fill: rgb(140, 29, 64);">
<path d="M250,500c-58.271,0-250,0-250,0s0-170.207,0-250C0,187.676,0,0,0,0s174.261,0,250,0c138.064,0,250,111.929,250,250
	C500,388.064,388.064,500,250,500z"/>
</g></g><g transform="translate(528,880) scale(0.088,0.088)"><g transform="" style="fill: rgb(140, 29, 64);">
<path d="M0,250C0,191.729,0,0,0,0s170.201,0,250,0c62.324,0,250,0,250,0s0,174.261,0,250c0,138.064-111.936,250-250,250
	C111.929,500,0,388.064,0,250z"/>
</g></g><g transform="translate(616,880) scale(0.088,0.088)"><g transform="" style="fill: rgb(140, 29, 64);">
<g>
	<path d="M0,500h500V0C223.861,0.001,0,223.854,0,500z"/>
</g>
</g></g><g transform="translate(660,880) scale(0.44,0.44)"><g transform="" style="fill: rgb(140, 29, 64);">
<rect width="100" height="100"/>
</g></g><g transform="translate(704,880) scale(0.44,0.44)"><g transform="" style="fill: rgb(140, 29, 64);">
<rect width="100" height="100"/>
</g></g><g transform="translate(748,880) scale(0.44,0.44)"><g transform="" style="fill: rgb(140, 29, 64);">
<rect width="100" height="100"/>
</g></g><g transform="translate(792,880) scale(0.44,0.44)"><g transform="" style="fill: rgb(140, 29, 64);">
<rect width="100" height="100"/>
</g></g><g transform="translate(836,880) scale(0.44,0.44)"><g transform="" style="fill: rgb(140, 29, 64);">
<rect width="100" height="100"/>
</g></g><g transform="translate(880,880) scale(0.44,0.44)"><g transform="" style="fill: rgb(140, 29, 64);">
<rect width="100" height="100"/>
</g></g><g transform="translate(924,880) scale(0.088,0.088)"><g transform="" style="fill: rgb(140, 29, 64);">
<g>
	<path d="M0,0v500h500C500,223.853,276.142,0,0,0z"/>
</g>
</g></g><g transform="translate(1012,880) scale(0.44,0.44)"><g transform="" style="fill: rgb(140, 29, 64);">
<rect width="100" height="100"/>
</g></g><g transform="translate(1056,880) scale(0.088,0.088)"><g transform="" style="fill: rgb(140, 29, 64);">
<g>
	<path d="M0,0v500h500C500,223.853,276.142,0,0,0z"/>
</g>
</g></g><g transform="translate(352,924) scale(0.088,0.088)"><g transform="" style="fill: rgb(140, 29, 64);">
<path d="M0,250C0,191.729,0,0,0,0s170.201,0,250,0c62.324,0,250,0,250,0s0,174.261,0,250c0,138.064-111.936,250-250,250
	C111.929,500,0,388.064,0,250z"/>
</g></g><g transform="translate(616,924) scale(0.088,0.088)"><g transform="" style="fill: rgb(140, 29, 64);">
<path d="M0,250C0,191.729,0,0,0,0s170.201,0,250,0c62.324,0,250,0,250,0s0,174.261,0,250c0,138.064-111.936,250-250,250
	C111.929,500,0,388.064,0,250z"/>
</g></g><g transform="translate(704,924) scale(0.088,0.088)"><g transform="" style="fill: rgb(140, 29, 64);">
<g>
	<path d="M500,500V0H0C0.001,276.142,223.853,500,500,500z"/>
</g>
</g></g><g transform="translate(748,924) scale(0.44,0.44)"><g transform="" style="fill: rgb(140, 29, 64);">
<rect width="100" height="100"/>
</g></g><g transform="translate(792,924) scale(0.088,0.088)"><g transform="" style="fill: rgb(140, 29, 64);">
<g>
	<path d="M500,0H0v500C276.142,500,500,276.142,500,0z"/>
</g>
</g></g><g transform="translate(924,924) scale(0.088,0.088)"><g transform="" style="fill: rgb(140, 29, 64);">
<path d="M0,250C0,191.729,0,0,0,0s170.201,0,250,0c62.324,0,250,0,250,0s0,174.261,0,250c0,138.064-111.936,250-250,250
	C111.929,500,0,388.064,0,250z"/>
</g></g><g transform="translate(1012,924) scale(0.44,0.44)"><g transform="" style="fill: rgb(140, 29, 64);">
<rect width="100" height="100"/>
</g></g><g transform="translate(1056,924) scale(0.44,0.44)"><g transform="" style="fill: rgb(140, 29, 64);">
<rect width="100" height="100"/>
</g></g><g transform="translate(396,968) scale(0.088,0.088)"><g transform="" style="fill: rgb(140, 29, 64);">
<path d="M250,0c58.27,0,250,0,250,0s0,170.182,0,250c0,62.305,0,250,0,250s-174.219,0-250,0
	C111.881,500,0,388.021,0,250C0,111.963,111.881,0,250,0z"/>
</g></g><g transform="translate(440,968) scale(0.088,0.088)"><g transform="" style="fill: rgb(140, 29, 64);">
<path d="M250,500c-58.271,0-250,0-250,0s0-170.207,0-250C0,187.676,0,0,0,0s174.261,0,250,0c138.064,0,250,111.929,250,250
	C500,388.064,388.064,500,250,500z"/>
</g></g><g transform="translate(528,968) scale(0.088,0.088)"><g transform="" style="fill: rgb(140, 29, 64);">
<path d="M250,0c58.27,0,250,0,250,0s0,170.182,0,250c0,62.305,0,250,0,250s-174.219,0-250,0
	C111.881,500,0,388.021,0,250C0,111.963,111.881,0,250,0z"/>
</g></g><g transform="translate(572,968) scale(0.088,0.088)"><g transform="" style="fill: rgb(140, 29, 64);">
<path d="M250,500c-58.271,0-250,0-250,0s0-170.207,0-250C0,187.676,0,0,0,0s174.261,0,250,0c138.064,0,250,111.929,250,250
	C500,388.064,388.064,500,250,500z"/>
</g></g><g transform="translate(748,968) scale(0.44,0.44)"><g transform="" style="fill: rgb(140, 29, 64);">
<rect width="100" height="100"/>
</g></g><g transform="translate(880,968) scale(0.088,0.088)"><g transform="" style="fill: rgb(140, 29, 64);">
<path d="M500,250c0,58.266,0,250,0,250s-170.194,0-250-0.012c-62.324,0.012-250,0-250,0s0-174.241,0-249.994
	C0.006,111.931,111.929,0,249.994,0C388.064,0,500,111.93,500,250z"/>
</g></g><g transform="translate(968,968) scale(0.088,0.088)"><g transform="" style="fill: rgb(140, 29, 64);">
<g>
	<path d="M0,500h500V0C223.861,0.001,0,223.854,0,500z"/>
</g>
</g></g><g transform="translate(1012,968) scale(0.44,0.44)"><g transform="" style="fill: rgb(140, 29, 64);">
<rect width="100" height="100"/>
</g></g><g transform="translate(1056,968) scale(0.44,0.44)"><g transform="" style="fill: rgb(140, 29, 64);">
<rect width="100" height="100"/>
</g></g><g transform="translate(660,1012) scale(0.088,0.088)"><g transform="" style="fill: rgb(140, 29, 64);">
<path d="M250,0c138.077,0,250,111.93,250,250c0,138.077-111.923,250-250,250C111.93,500,0,388.077,0,250C0,111.93,111.93,0,250,0z"
	/>
</g></g><g transform="translate(748,1012) scale(0.088,0.088)"><g transform="" style="fill: rgb(140, 29, 64);">
<path d="M0,250C0,191.729,0,0,0,0s170.201,0,250,0c62.324,0,250,0,250,0s0,174.261,0,250c0,138.064-111.936,250-250,250
	C111.929,500,0,388.064,0,250z"/>
</g></g><g transform="translate(836,1012) scale(0.088,0.088)"><g transform="" style="fill: rgb(140, 29, 64);">
<path d="M250,0c58.27,0,250,0,250,0s0,170.182,0,250c0,62.305,0,250,0,250s-174.219,0-250,0
	C111.881,500,0,388.021,0,250C0,111.963,111.881,0,250,0z"/>
</g></g><g transform="translate(880,1012) scale(0.088,0.088)"><g transform="" style="fill: rgb(140, 29, 64);">
<g>
	<path d="M500,0H0v500C276.142,500,500,276.142,500,0z"/>
</g>
</g></g><g transform="translate(968,1012) scale(0.088,0.088)"><g transform="" style="fill: rgb(140, 29, 64);">
<g>
	<path d="M500,500V0H0C0.001,276.142,223.853,500,500,500z"/>
</g>
</g></g><g transform="translate(1012,1012) scale(0.44,0.44)"><g transform="" style="fill: rgb(140, 29, 64);">
<rect width="100" height="100"/>
</g></g><g transform="translate(1056,1012) scale(0.44,0.44)"><g transform="" style="fill: rgb(140, 29, 64);">
<rect width="100" height="100"/>
</g></g><g transform="translate(352,1056) scale(0.088,0.088)"><g transform="" style="fill: rgb(140, 29, 64);">
<path d="M250,0c58.27,0,250,0,250,0s0,170.182,0,250c0,62.305,0,250,0,250s-174.219,0-250,0
	C111.881,500,0,388.021,0,250C0,111.963,111.881,0,250,0z"/>
</g></g><g transform="translate(396,1056) scale(0.44,0.44)"><g transform="" style="fill: rgb(140, 29, 64);">
<rect width="100" height="100"/>
</g></g><g transform="translate(440,1056) scale(0.088,0.088)"><g transform="" style="fill: rgb(140, 29, 64);">
<path d="M250,500c-58.271,0-250,0-250,0s0-170.207,0-250C0,187.676,0,0,0,0s174.261,0,250,0c138.064,0,250,111.929,250,250
	C500,388.064,388.064,500,250,500z"/>
</g></g><g transform="translate(528,1056) scale(0.088,0.088)"><g transform="" style="fill: rgb(140, 29, 64);">
<path d="M250,0c58.27,0,250,0,250,0s0,170.182,0,250c0,62.305,0,250,0,250s-174.219,0-250,0
	C111.881,500,0,388.021,0,250C0,111.963,111.881,0,250,0z"/>
</g></g><g transform="translate(572,1056) scale(0.44,0.44)"><g transform="" style="fill: rgb(140, 29, 64);">
<rect width="100" height="100"/>
</g></g><g transform="translate(616,1056) scale(0.088,0.088)"><g transform="" style="fill: rgb(140, 29, 64);">
<path d="M250,500c-58.271,0-250,0-250,0s0-170.207,0-250C0,187.676,0,0,0,0s174.261,0,250,0c138.064,0,250,111.929,250,250
	C500,388.064,388.064,500,250,500z"/>
</g></g><g transform="translate(704,1056) scale(0.088,0.088)"><g transform="" style="fill: rgb(140, 29, 64);">
<path d="M250,0c138.077,0,250,111.93,250,250c0,138.077-111.923,250-250,250C111.93,500,0,388.077,0,250C0,111.93,111.93,0,250,0z"
	/>
</g></g><g transform="translate(792,1056) scale(0.088,0.088)"><g transform="" style="fill: rgb(140, 29, 64);">
<path d="M250,0c138.077,0,250,111.93,250,250c0,138.077-111.923,250-250,250C111.93,500,0,388.077,0,250C0,111.93,111.93,0,250,0z"
	/>
</g></g><g transform="translate(924,1056) scale(0.088,0.088)"><g transform="" style="fill: rgb(140, 29, 64);">
<path d="M250,0c138.077,0,250,111.93,250,250c0,138.077-111.923,250-250,250C111.93,500,0,388.077,0,250C0,111.93,111.93,0,250,0z"
	/>
</g></g><g transform="translate(1056,1056) scale(0.088,0.088)"><g transform="" style="fill: rgb(140, 29, 64);">
<path d="M0,250C0,191.729,0,0,0,0s170.201,0,250,0c62.324,0,250,0,250,0s0,174.261,0,250c0,138.064-111.936,250-250,250
	C111.929,500,0,388.064,0,250z"/>
</g></g><g transform="translate(0,0) scale(3.08, 3.08)"><g transform="" style="fill: rgb(140, 29, 64);">
<g>
	<path style="fill:none;" d="M65.859,15.008H34.141c-4.082,0-7.869,1.258-10.979,3.398c-2.419,1.665-4.428,3.864-5.848,6.421
		C15.838,27.484,15,30.526,15,33.758v32.471c0,10.344,8.586,18.76,19.145,18.76L50,84.992l15.855-0.004
		C76.414,84.988,85,76.572,85,66.229V33.758C85,23.419,76.414,15.008,65.859,15.008z"/>
	<path d="M65.859,0.008H34.141h0C18.683,0.008,5.587,10.221,1.4,24.18c-0.433,1.444-0.771,2.928-1.006,4.445
		C0.135,30.299,0,32.013,0,33.758v32.471c0,18.619,15.32,33.76,34.141,33.76L50,99.992l15.859-0.004
		c18.82,0,34.141-15.141,34.141-33.76V33.758C100,15.148,84.68,0.008,65.859,0.008z M85,66.229c0,10.344-8.586,18.76-19.145,18.76
		L50,84.992l-15.855-0.004C23.586,84.988,15,76.572,15,66.229V33.758c0-3.231,0.838-6.273,2.313-8.931
		c1.42-2.557,3.429-4.756,5.848-6.421c3.11-2.141,6.897-3.398,10.979-3.398h31.719C76.414,15.008,85,23.419,85,33.758V66.229z"/>
</g>
</g></g><g transform="translate(792,0) scale(3.08, 3.08)"><g transform="" style="fill: rgb(140, 29, 64);">
<g>
	<path style="fill:none;" d="M65.859,15.008H34.141c-4.082,0-7.869,1.258-10.979,3.398c-2.419,1.665-4.428,3.864-5.848,6.421
		C15.838,27.484,15,30.526,15,33.758v32.471c0,10.344,8.586,18.76,19.145,18.76L50,84.992l15.855-0.004
		C76.414,84.988,85,76.572,85,66.229V33.758C85,23.419,76.414,15.008,65.859,15.008z"/>
	<path d="M65.859,0.008H34.141h0C18.683,0.008,5.587,10.221,1.4,24.18c-0.433,1.444-0.771,2.928-1.006,4.445
		C0.135,30.299,0,32.013,0,33.758v32.471c0,18.619,15.32,33.76,34.141,33.76L50,99.992l15.859-0.004
		c18.82,0,34.141-15.141,34.141-33.76V33.758C100,15.148,84.68,0.008,65.859,0.008z M85,66.229c0,10.344-8.586,18.76-19.145,18.76
		L50,84.992l-15.855-0.004C23.586,84.988,15,76.572,15,66.229V33.758c0-3.231,0.838-6.273,2.313-8.931
		c1.42-2.557,3.429-4.756,5.848-6.421c3.11-2.141,6.897-3.398,10.979-3.398h31.719C76.414,15.008,85,23.419,85,33.758V66.229z"/>
</g>
</g></g><g transform="translate(0,792) scale(3.08, 3.08)"><g transform="" style="fill: rgb(140, 29, 64);">
<g>
	<path style="fill:none;" d="M65.859,15.008H34.141c-4.082,0-7.869,1.258-10.979,3.398c-2.419,1.665-4.428,3.864-5.848,6.421
		C15.838,27.484,15,30.526,15,33.758v32.471c0,10.344,8.586,18.76,19.145,18.76L50,84.992l15.855-0.004
		C76.414,84.988,85,76.572,85,66.229V33.758C85,23.419,76.414,15.008,65.859,15.008z"/>
	<path d="M65.859,0.008H34.141h0C18.683,0.008,5.587,10.221,1.4,24.18c-0.433,1.444-0.771,2.928-1.006,4.445
		C0.135,30.299,0,32.013,0,33.758v32.471c0,18.619,15.32,33.76,34.141,33.76L50,99.992l15.859-0.004
		c18.82,0,34.141-15.141,34.141-33.76V33.758C100,15.148,84.68,0.008,65.859,0.008z M85,66.229c0,10.344-8.586,18.76-19.145,18.76
		L50,84.992l-15.855-0.004C23.586,84.988,15,76.572,15,66.229V33.758c0-3.231,0.838-6.273,2.313-8.931
		c1.42-2.557,3.429-4.756,5.848-6.421c3.11-2.141,6.897-3.398,10.979-3.398h31.719C76.414,15.008,85,23.419,85,33.758V66.229z"/>
</g>
</g></g><g transform="translate(88,88) scale(1.32, 1.32)"><g transform="" style="fill: rgb(140, 29, 64);">
<g>
	<g id="XMLID_1_">
		<g>
			<path d="M27.351,100c-15.09,0-27.365-12.032-27.365-26.808V26.794c0-4.616,1.2-8.96,3.301-12.761
				c2.029-3.658,4.901-6.802,8.36-9.174C16.09,1.801,21.506,0,27.336,0h45.327c15.076,0,27.351,12.018,27.351,26.793v46.398
				c0,14.775-12.274,26.808-27.351,26.808H50H27.351z"/>
		</g>
		<g>
		</g>
	</g>
</g>
</g></g><g transform="translate(880,88) scale(1.32, 1.32)"><g transform="" style="fill: rgb(140, 29, 64);">
<g>
	<g id="XMLID_1_">
		<g>
			<path d="M27.351,100c-15.09,0-27.365-12.032-27.365-26.808V26.794c0-4.616,1.2-8.96,3.301-12.761
				c2.029-3.658,4.901-6.802,8.36-9.174C16.09,1.801,21.506,0,27.336,0h45.327c15.076,0,27.351,12.018,27.351,26.793v46.398
				c0,14.775-12.274,26.808-27.351,26.808H50H27.351z"/>
		</g>
		<g>
		</g>
	</g>
</g>
</g></g><g transform="translate(88,880) scale(1.32, 1.32)"><g transform="" style="fill: rgb(140, 29, 64);">
<g>
	<g id="XMLID_1_">
		<g>
			<path d="M27.351,100c-15.09,0-27.365-12.032-27.365-26.808V26.794c0-4.616,1.2-8.96,3.301-12.761
				c2.029-3.658,4.901-6.802,8.36-9.174C16.09,1.801,21.506,0,27.336,0h45.327c15.076,0,27.351,12.018,27.351,26.793v46.398
				c0,14.775-12.274,26.808-27.351,26.808H50H27.351z"/>
		</g>
		<g>
		</g>
	</g>
</g>
</g></g></g></svg>